<svg width="344.78749999999997px" height="124.39999999999999px" xmlns="http://www.w3.org/2000/svg" viewBox="77.60625000000002 12.800000000000004 344.78749999999997 124.39999999999999" style="background: rgba(0, 0, 0, 0);" preserveAspectRatio="xMidYMid"><defs><linearGradient id="editing-gradient-gradient" x1="0.9635919272833937" x2="0.03640807271660629" y1="0.687303296707956" y2="0.312696703292044" gradientUnits="objectBoundingBox"><stop offset="0" stop-color="#f37e7e"></stop><stop offset="1" stop-color="#883fe0"></stop></linearGradient></defs><g><g transform="translate(128.98499298095703, 97.40500450134277)"><path d="M5.75-6.41L5.75-38.41L5.75-38.41Q5.75-39.72 6.25-40.89L6.25-40.89L6.25-40.89Q6.75-42.06 7.63-42.92L7.63-42.92L7.63-42.92Q8.50-43.78 9.67-44.30L9.67-44.30L9.67-44.30Q10.84-44.81 12.16-44.81L12.16-44.81L36.47-44.81L36.47-44.81Q37.78-44.81 38.95-44.30L38.95-44.30L38.95-44.30Q40.13-43.78 41-42.92L41-42.92L41-42.92Q41.88-42.06 42.38-40.89L42.38-40.89L42.38-40.89Q42.88-39.72 42.88-38.41L42.88-38.41L42.88-32.63L36.47-32.63L36.47-38.41L12.16-38.41L12.16-6.41L36.47-6.41L36.47-12.16L42.88-12.16L42.88-6.41L42.88-6.41Q42.88-5.09 42.38-3.92L42.38-3.92L42.38-3.92Q41.88-2.75 41-1.88L41-1.88L41-1.88Q40.13-1 38.95-0.50L38.95-0.50L38.95-0.50Q37.78 0 36.47 0L36.47 0L12.16 0L12.16 0Q10.84 0 9.67-0.50L9.67-0.50L9.67-0.50Q8.50-1 7.63-1.88L7.63-1.88L7.63-1.88Q6.75-2.75 6.25-3.92L6.25-3.92L6.25-3.92Q5.75-5.09 5.75-6.41L5.75-6.41ZM80.66-27.13L80.66-13.50L58.63-13.50L58.63-6.16L80.66-6.16L80.66 0L58.63 0L58.63 0Q57.38 0 56.25-0.48L56.25-0.48L56.25-0.48Q55.13-0.97 54.30-1.80L54.30-1.80L54.30-1.80Q53.47-2.63 52.98-3.75L52.98-3.75L52.98-3.75Q52.50-4.88 52.50-6.16L52.50-6.16L52.50-27.13L52.50-27.13Q52.50-28.41 52.98-29.53L52.98-29.53L52.98-29.53Q53.47-30.66 54.30-31.48L54.30-31.48L54.30-31.48Q55.13-32.31 56.25-32.80L56.25-32.80L56.25-32.80Q57.38-33.28 58.63-33.28L58.63-33.28L74.50-33.28L74.50-33.28Q75.78-33.28 76.91-32.80L76.91-32.80L76.91-32.80Q78.03-32.31 78.86-31.48L78.86-31.48L78.86-31.48Q79.69-30.66 80.17-29.53L80.17-29.53L80.17-29.53Q80.66-28.41 80.66-27.13L80.66-27.13ZM74.50-27.13L58.63-27.13L58.63-19.66L74.50-19.66L74.50-27.13ZM119.06-27.13L119.06-13.50L97.03-13.50L97.03-6.16L119.06-6.16L119.06 0L97.03 0L97.03 0Q95.78 0 94.66-0.48L94.66-0.48L94.66-0.48Q93.53-0.97 92.70-1.80L92.70-1.80L92.70-1.80Q91.88-2.63 91.39-3.75L91.39-3.75L91.39-3.75Q90.91-4.88 90.91-6.16L90.91-6.16L90.91-27.13L90.91-27.13Q90.91-28.41 91.39-29.53L91.39-29.53L91.39-29.53Q91.88-30.66 92.70-31.48L92.70-31.48L92.70-31.48Q93.53-32.31 94.66-32.80L94.66-32.80L94.66-32.80Q95.78-33.28 97.03-33.28L97.03-33.28L112.91-33.28L112.91-33.28Q114.19-33.28 115.31-32.80L115.31-32.80L115.31-32.80Q116.44-32.31 117.27-31.48L117.27-31.48L117.27-31.48Q118.09-30.66 118.58-29.53L118.58-29.53L118.58-29.53Q119.06-28.41 119.06-27.13L119.06-27.13ZM112.91-27.13L97.03-27.13L97.03-19.66L112.91-19.66L112.91-27.13ZM129.94-44.81L136.34-44.81L136.34-25.47L157.72-44.81L166.75-44.81L142.50-22.84L167.72 0L158.69 0L136.34-20.16L136.34 0L129.94 0L129.94-44.81ZM201.06-27.13L201.06-13.50L179.03-13.50L179.03-6.16L201.06-6.16L201.06 0L179.03 0L179.03 0Q177.78 0 176.66-0.48L176.66-0.48L176.66-0.48Q175.53-0.97 174.70-1.80L174.70-1.80L174.70-1.80Q173.88-2.63 173.39-3.75L173.39-3.75L173.39-3.75Q172.91-4.88 172.91-6.16L172.91-6.16L172.91-27.13L172.91-27.13Q172.91-28.41 173.39-29.53L173.39-29.53L173.39-29.53Q173.88-30.66 174.70-31.48L174.70-31.48L174.70-31.48Q175.53-32.31 176.66-32.80L176.66-32.80L176.66-32.80Q177.78-33.28 179.03-33.28L179.03-33.28L194.91-33.28L194.91-33.28Q196.19-33.28 197.31-32.80L197.31-32.80L197.31-32.80Q198.44-32.31 199.27-31.48L199.27-31.48L199.27-31.48Q200.09-30.66 200.58-29.53L200.58-29.53L200.58-29.53Q201.06-28.41 201.06-27.13L201.06-27.13ZM194.91-27.13L179.03-27.13L179.03-19.66L194.91-19.66L194.91-27.13ZM230.13-27.13L217.44-27.13L217.44 0L211.31 0L211.31-33.28L217.44-33.28L217.44-27.41L217.44-27.41Q217.50-28.63 218-29.70L218-29.70L218-29.70Q218.50-30.78 219.33-31.58L219.33-31.58L219.33-31.58Q220.16-32.38 221.25-32.83L221.25-32.83L221.25-32.83Q222.34-33.28 223.59-33.28L223.59-33.28L230.13-33.28L230.13-33.28Q231.41-33.28 232.52-32.80L232.52-32.80L232.52-32.80Q233.63-32.31 234.47-31.48L234.47-31.48L234.47-31.48Q235.31-30.66 235.80-29.53L235.80-29.53L235.80-29.53Q236.28-28.41 236.28-27.13L236.28-27.13L236.28-21.50L230.13-21.50L230.13-27.13Z" fill="url(#editing-gradient-gradient)"></path></g></g><style>text {
  font-size: 64px;
  font-family: Arial Black;
  dominant-baseline: central;
  text-anchor: middle;
}</style></svg>